<svg version="1.0" xmlns="http://www.w3.org/2000/svg" width="512.000000pt" height="512.000000pt" viewBox="0 0 512.000000 512.000000" preserveAspectRatio="xMidYMid meet" fill="#000000">
<g transform="translate(0.000000,512.000000) scale(0.100000,-0.100000)">
<path d="M2320 5109 c-491 -47 -982 -247 -1365 -556 -202 -163 -423 -411 -561 -630 -205 -324 -353 -759 -380 -1113 l-7 -90 803 2 802 3 18 72 c42 164 121 302 245 428 137 139 269 217 454 267 102 28 342 31 445 5 186 -47 329 -128 466 -267 129 -130 207 -265 250 -433 l18 -72 802 -3 803 -2 -6 83 c-36 465 -242 971 -555 1362 -102 128 -319 339 -447 436 -514 385 -1156 568 -1785 508z"/>
<path d="M2421 3185 c-110 -24 -226 -89 -311 -175 -250 -250 -252 -649 -5 -895 122 -121 256 -183 419 -192 292 -16 560 170 649 452 31 99 31 271 0 370 -101 318 -428 510 -752 440z"/>
<path d="M14 2310 c21 -282 122 -627 265 -908 125 -243 253 -422 446 -621 221 -227 418 -372 696 -510 822 -410 1775 -352 2549 153 283 185 571 480 755 772 209 333 354 757 382 1121 l6 83 -803 -2 -802 -3 -19 -73 c-43 -168 -122 -304 -254 -437 -179 -178 -372 -266 -621 -282 -452 -27 -872 279 -984 720 l-18 72 -802 3 -803 2 7 -90z"/>
</g>
</svg>
