<?xml version="1.0" standalone="no"?>
<!DOCTYPE svg PUBLIC "-//W3C//DTD SVG 20010904//EN"
 "http://www.w3.org/TR/2001/REC-SVG-20010904/DTD/svg10.dtd">
<svg version="1.0" xmlns="http://www.w3.org/2000/svg"
 width="608.000000pt" height="608.000000pt" viewBox="0 0 608.000000 608.000000"
 preserveAspectRatio="xMidYMid meet">
<metadata>
Created by potrace 1.14, written by Peter Selinger 2001-2017
</metadata>
<g transform="translate(0.000000,608.000000) scale(0.100000,-0.100000)"
fill="#000000" stroke="none">
<path d="M2032 3880 c-26 -10 -72 -28 -102 -42 -30 -14 -59 -26 -65 -28 -20
-6 -81 -32 -133 -57 -39 -19 -57 -34 -72 -64 -11 -21 -18 -39 -16 -39 3 0 -1
-18 -9 -39 -7 -22 -11 -42 -8 -44 3 -3 1 -11 -3 -19 -4 -7 -10 -31 -12 -53 -2
-22 -5 -41 -7 -43 -2 -2 -32 -5 -67 -6 -35 -1 -69 -6 -75 -9 -15 -9 -13 35 2
45 7 5 7 8 -1 8 -6 0 -10 14 -9 30 1 17 -2 30 -6 30 -5 0 -6 7 -3 15 4 8 1 15
-5 15 -6 0 -11 8 -11 18 0 9 -10 29 -23 44 -13 15 -32 39 -43 53 -10 14 -34
35 -52 47 -18 11 -38 25 -45 32 -6 7 -44 22 -82 35 -128 40 -347 30 -530 -26
-160 -49 -292 -97 -309 -111 -28 -26 -53 -84 -51 -117 2 -25 30 -109 62 -185
3 -8 7 -17 7 -20 5 -28 35 -104 56 -140 17 -30 39 -52 66 -65 44 -21 49 -30
88 -145 14 -41 41 -119 59 -172 19 -54 33 -98 30 -98 -3 0 1 -10 9 -22 13 -20
22 -46 34 -93 8 -34 40 -117 61 -158 32 -64 72 -88 143 -86 30 2 57 5 60 8 11
13 95 64 98 60 2 -2 8 4 13 14 6 9 14 15 19 12 4 -3 11 2 14 11 3 9 13 14 21
11 9 -4 12 -1 8 9 -8 22 22 17 54 -9 131 -105 344 -123 505 -41 26 13 48 21
49 17 0 -5 1 -28 2 -53 1 -55 35 -119 74 -142 25 -15 59 -18 219 -19 104 -1
200 1 214 6 14 4 39 22 55 40 27 29 33 44 37 92 1 10 30 -3 63 -30 66 -53 204
-147 218 -148 21 -2 81 -2 106 0 11 0 32 14 47 30 15 17 32 27 37 24 6 -3 7
-1 3 5 -3 6 -2 22 4 36 5 14 6 28 1 30 -5 3 -6 17 -3 31 4 22 10 25 46 26 22
0 49 2 58 4 9 2 36 6 59 9 58 8 158 37 165 47 3 5 13 9 23 9 10 0 24 7 31 15
17 21 37 19 45 -5 3 -11 22 -32 42 -47 46 -35 96 -36 268 -3 28 6 66 12 85 14
19 3 36 6 38 7 2 2 6 3 54 12 34 7 105 38 168 73 23 12 27 11 51 -14 56 -57
105 -85 193 -108 52 -14 265 -13 318 1 21 5 27 3 32 -12 3 -11 25 -30 47 -42
40 -23 47 -23 244 -19 195 4 205 5 239 29 19 13 41 34 47 46 16 29 23 29 39
-2 19 -35 94 -69 160 -72 30 -1 119 -3 197 -3 130 -1 146 0 182 21 22 12 38
26 35 31 -3 4 2 11 10 14 9 3 14 10 11 14 -3 5 -1 11 4 14 5 3 8 26 6 50 -2
42 -23 88 -62 133 -10 12 -25 31 -33 43 -8 13 -32 45 -52 71 -21 27 -38 53
-38 58 0 5 -4 11 -10 13 -5 2 -25 25 -44 52 l-35 49 32 41 c17 23 34 43 38 46
3 3 19 24 36 47 17 23 33 39 37 36 5 -5 7 0 6 22 0 3 12 17 27 31 16 15 27 31
25 36 -2 6 4 8 13 4 9 -3 13 -2 10 3 -3 6 3 14 12 20 10 6 14 11 9 11 -5 0 3
11 18 25 15 14 25 29 21 34 -3 5 0 13 6 17 8 4 9 3 5 -4 -4 -7 -3 -12 2 -12
16 0 21 13 12 30 -7 14 -6 17 7 16 8 0 17 7 18 17 2 9 -1 14 -7 11 -5 -4 -5 4
2 16 7 12 8 25 4 29 -5 3 -18 22 -28 40 -28 50 -65 79 -116 90 -24 5 -47 8
-51 6 -3 -3 -75 -7 -160 -10 -196 -8 -204 -9 -231 -28 -44 -31 -58 -44 -58
-55 0 -5 -7 -12 -15 -16 -8 -3 -15 -12 -15 -20 0 -23 -24 -9 -44 25 -28 47
-88 81 -149 85 -114 7 -303 16 -327 15 -59 -2 -120 -36 -133 -74 -1 -5 -25
-11 -51 -13 -27 -1 -67 -6 -90 -10 -22 -4 -48 -8 -56 -9 -9 0 -20 -3 -25 -6
-20 -10 -50 -4 -51 11 0 8 -4 30 -8 47 -4 18 -7 35 -7 38 0 3 -8 21 -19 40
-11 20 -20 42 -20 50 0 8 -3 15 -8 15 -4 0 -13 14 -21 31 -7 17 -37 55 -65 84
-64 65 -140 104 -236 122 -44 8 -254 10 -290 2 -37 -8 -86 -17 -135 -24 -16
-3 -76 -19 -133 -36 -109 -32 -146 -32 -155 0 -7 29 -84 75 -126 76 -37 1 -74
-17 -271 -125 -184 -101 -205 -120 -215 -199 -5 -41 10 -80 64 -161 l41 -61
-58 7 c-115 13 -148 12 -188 -8 -21 -10 -43 -16 -49 -14 -6 3 -6 5 1 5 11 1
10 53 -1 72 -4 5 -2 9 3 9 10 0 9 30 -2 48 -4 7 -4 22 -1 33 6 16 4 20 -6 14
-11 -6 -12 -5 -1 6 6 7 12 17 12 22 0 4 -6 5 -12 1 -10 -6 -10 -4 0 8 10 13
10 17 0 21 -10 4 -10 6 1 6 11 1 11 4 0 18 -8 10 -9 14 -2 10 8 -5 11 0 10 13
-1 11 -4 20 -8 20 -9 0 -6 21 5 39 6 9 5 12 -1 8 -6 -4 -14 0 -17 9 -4 10 -2
13 7 8 9 -6 9 -5 0 8 -7 8 -10 18 -6 21 3 4 0 13 -6 21 -9 11 -9 16 0 22 8 5
9 3 4 -6 -5 -9 -4 -11 3 -6 9 5 8 15 -3 36 -8 16 -15 37 -15 47 -1 20 -13 38
-48 67 -34 29 -112 36 -170 16z"/>
</g>
</svg>
